<?xml version="1.0" standalone="no"?>
<!DOCTYPE svg PUBLIC "-//W3C//DTD SVG 20010904//EN"
 "http://www.w3.org/TR/2001/REC-SVG-20010904/DTD/svg10.dtd">
<svg version="1.0" xmlns="http://www.w3.org/2000/svg"
 width="898.000000pt" height="889.000000pt" viewBox="0 0 898.000000 889.000000"
 preserveAspectRatio="xMidYMid meet">
<metadata>
Created by potrace 1.15, written by Peter Selinger 2001-2017
</metadata>
<g transform="translate(0.000000,889.000000) scale(0.100000,-0.100000)"
fill="#000000" stroke="none">
<path d="M4140 8814 c-287 -29 -331 -35 -455 -60 -835 -164 -1531 -515 -2149
-1083 -127 -116 -312 -313 -394 -419 -31 -41 -74 -92 -94 -115 -21 -23 -38
-46 -38 -53 0 -7 -7 -14 -15 -18 -8 -3 -15 -12 -15 -20 0 -8 -3 -16 -8 -18
-12 -5 -82 -104 -82 -116 0 -6 -3 -12 -8 -14 -11 -5 -142 -209 -142 -221 0 -6
-7 -19 -16 -28 -16 -18 -73 -119 -95 -169 -6 -14 -17 -36 -25 -50 -7 -14 -19
-36 -25 -50 -6 -14 -25 -51 -40 -83 -16 -31 -29 -61 -29 -66 0 -5 -10 -31 -22
-58 -12 -26 -22 -50 -23 -53 -2 -6 -18 -47 -39 -100 -23 -56 -29 -73 -41 -115
-7 -22 -22 -67 -33 -100 -44 -124 -117 -412 -127 -500 -3 -22 -9 -62 -15 -90
-12 -61 -21 -118 -40 -255 -19 -139 -20 -813 -1 -950 7 -47 14 -105 17 -130 3
-25 12 -80 20 -123 9 -43 17 -98 20 -123 2 -26 8 -53 13 -63 4 -9 16 -54 25
-101 10 -47 21 -92 24 -100 3 -8 6 -18 7 -22 2 -5 3 -9 5 -10 1 -2 3 -12 5
-23 2 -11 11 -44 20 -72 9 -29 18 -58 19 -65 5 -27 39 -124 49 -136 5 -6 7
-12 4 -12 -4 0 0 -18 8 -40 13 -36 23 -62 56 -135 5 -11 20 -51 35 -90 14 -38
36 -90 49 -115 13 -25 40 -80 61 -122 20 -43 41 -78 46 -78 5 0 7 -4 4 -9 -3
-5 17 -46 44 -91 28 -46 50 -86 50 -90 0 -3 9 -16 20 -28 12 -12 18 -22 15
-22 -7 0 86 -144 96 -148 5 -2 9 -8 9 -14 0 -13 109 -166 169 -238 26 -30 59
-73 75 -94 79 -105 343 -377 501 -515 666 -581 1492 -944 2385 -1047 213 -25
635 -30 830 -10 289 29 335 35 485 66 567 114 1064 317 1545 629 656 425 1217
1065 1553 1771 521 1095 561 2367 109 3490 -325 809 -892 1506 -1622 1995
-494 330 -999 538 -1591 655 -367 71 -861 98 -1189 64z m1249 -1154 c56 -28
99 -85 124 -165 18 -57 22 -92 21 -190 -1 -104 -26 -313 -40 -336 -2 -5 -70
-396 -149 -871 -224 -1342 -285 -1689 -311 -1779 -40 -137 -128 -252 -212
-277 -94 -28 -164 -10 -229 60 -51 56 -73 97 -89 167 -14 59 -20 26 112 651
19 91 57 271 84 400 27 129 65 312 85 405 20 94 47 222 60 285 13 63 40 189
59 280 19 91 53 253 76 360 39 187 45 270 19 270 -5 0 -28 -21 -51 -47 -24
-26 -92 -99 -152 -163 -216 -229 -433 -509 -684 -885 -66 -99 -165 -236 -221
-305 -55 -69 -135 -183 -177 -255 -71 -119 -166 -277 -345 -572 -85 -140 -118
-204 -170 -335 -89 -225 -189 -383 -268 -425 -96 -50 -240 -14 -288 72 -37 66
-47 137 -34 235 17 117 147 630 341 1340 201 737 310 1274 286 1404 -9 46 -21
46 -111 2 -201 -97 -436 -382 -711 -863 -120 -209 -394 -754 -472 -938 -110
-261 -391 -978 -473 -1209 -20 -56 -82 -122 -132 -141 -49 -19 -85 -21 -180
-13 -99 9 -158 56 -196 156 -29 73 -27 163 4 282 35 131 137 430 145 425 4 -2
20 28 35 68 175 453 476 1058 750 1502 178 289 429 631 540 735 26 24 72 74
101 111 63 78 236 234 372 337 123 92 256 160 344 174 233 40 453 -112 509
-352 26 -115 17 -180 -115 -819 -69 -333 -123 -607 -121 -610 8 -7 11 -3 156
204 189 270 297 419 423 580 60 77 136 181 170 230 174 260 493 587 707 726
127 83 193 107 297 108 54 1 83 -4 111 -19z m2459 -2249 l23 -12 -3 -402 -3
-402 -69 -170 c-177 -438 -454 -988 -709 -1405 -192 -315 -464 -687 -546 -747
-16 -13 -56 -56 -88 -95 -131 -166 -411 -400 -583 -488 -199 -101 -410 -72
-550 76 -133 141 -157 305 -92 614 29 136 60 284 117 560 13 63 40 192 60 287
20 94 35 178 33 186 -1 8 -66 -75 -143 -186 -155 -222 -328 -458 -475 -647
-53 -69 -121 -161 -150 -205 -122 -183 -431 -513 -594 -635 -337 -251 -569
-234 -632 47 -22 98 -14 305 16 443 11 52 72 403 136 780 136 813 219 1305
239 1415 90 504 96 529 144 623 69 135 213 205 317 156 73 -35 156 -156 170
-249 6 -42 -1 -79 -81 -455 -25 -118 -52 -246 -60 -285 -7 -38 -32 -155 -55
-260 -23 -104 -48 -221 -55 -260 -8 -38 -35 -167 -60 -285 -25 -118 -57 -267
-70 -330 -53 -257 -75 -362 -104 -499 -30 -140 -37 -213 -25 -246 5 -12 34 13
118 102 301 316 483 547 768 971 72 108 169 242 215 299 100 124 155 206 258
383 43 74 119 200 168 280 145 232 212 353 257 463 71 172 157 339 207 402 65
81 118 108 200 102 142 -10 213 -96 213 -258 0 -97 -19 -184 -141 -653 -121
-460 -121 -462 -174 -651 -71 -256 -137 -511 -180 -694 -116 -496 -135 -603
-135 -760 l0 -93 37 7 c80 15 185 88 308 216 206 214 391 499 662 1023 242
466 383 795 664 1546 55 146 105 275 111 288 20 39 79 91 122 106 48 18 178
16 214 -3z"/>
</g>
</svg>
